<svg width="124" height="17" viewBox="0 0 124 17" fill="none" xmlns="http://www.w3.org/2000/svg">
<path d="M8.908 14.168C7.89067 14.168 6.97133 13.9487 6.15 13.51C5.338 13.0713 4.69867 12.4693 4.232 11.704C3.77467 10.9293 3.546 10.0613 3.546 9.1C3.546 8.13867 3.77467 7.27533 4.232 6.51C4.69867 5.73533 5.338 5.12867 6.15 4.69C6.97133 4.25133 7.89067 4.032 8.908 4.032C9.92533 4.032 10.84 4.25133 11.652 4.69C12.464 5.12867 13.1033 5.73533 13.57 6.51C14.0367 7.27533 14.27 8.13867 14.27 9.1C14.27 10.0613 14.0367 10.9293 13.57 11.704C13.1033 12.4693 12.464 13.0713 11.652 13.51C10.84 13.9487 9.92533 14.168 8.908 14.168ZM8.908 12.236C9.48667 12.236 10.0093 12.1053 10.476 11.844C10.9427 11.5733 11.3067 11.2 11.568 10.724C11.8387 10.248 11.974 9.70667 11.974 9.1C11.974 8.49333 11.8387 7.952 11.568 7.476C11.3067 7 10.9427 6.63133 10.476 6.37C10.0093 6.09933 9.48667 5.964 8.908 5.964C8.32933 5.964 7.80667 6.09933 7.34 6.37C6.87333 6.63133 6.50467 7 6.234 7.476C5.97267 7.952 5.842 8.49333 5.842 9.1C5.842 9.70667 5.97267 10.248 6.234 10.724C6.50467 11.2 6.87333 11.5733 7.34 11.844C7.80667 12.1053 8.32933 12.236 8.908 12.236ZM25.0918 11.9H20.5418L19.6738 14H17.3498L21.7178 4.2H23.9578L28.3398 14H25.9598L25.0918 11.9ZM24.3778 10.178L22.8238 6.426L21.2698 10.178H24.3778ZM41.1445 4.2V14H39.2825L34.3965 8.05V14H32.1565V4.2H34.0325L38.9045 10.15V4.2H41.1445ZM50.9532 14.168C49.9545 14.168 49.0492 13.9533 48.2372 13.524C47.4345 13.0853 46.7998 12.4833 46.3332 11.718C45.8758 10.9433 45.6472 10.0707 45.6472 9.1C45.6472 8.12933 45.8758 7.26133 46.3332 6.496C46.7998 5.72133 47.4345 5.11933 48.2372 4.69C49.0492 4.25133 49.9592 4.032 50.9672 4.032C51.8165 4.032 52.5818 4.18133 53.2632 4.48C53.9538 4.77867 54.5325 5.208 54.9992 5.768L53.5432 7.112C52.8805 6.34667 52.0592 5.964 51.0792 5.964C50.4725 5.964 49.9312 6.09933 49.4552 6.37C48.9792 6.63133 48.6058 7 48.3352 7.476C48.0738 7.952 47.9432 8.49333 47.9432 9.1C47.9432 9.70667 48.0738 10.248 48.3352 10.724C48.6058 11.2 48.9792 11.5733 49.4552 11.844C49.9312 12.1053 50.4725 12.236 51.0792 12.236C52.0592 12.236 52.8805 11.8487 53.5432 11.074L54.9992 12.418C54.5325 12.9873 53.9538 13.4213 53.2632 13.72C52.5725 14.0187 51.8025 14.168 50.9532 14.168ZM66.9188 12.18V14H59.3308V4.2H66.7368V6.02H61.5848V8.148H66.1348V9.912H61.5848V12.18H66.9188ZM77.9773 11.9H73.4273L72.5593 14H70.2353L74.6033 4.2H76.8433L81.2253 14H78.8453L77.9773 11.9ZM77.2633 10.178L75.7093 6.426L74.1553 10.178H77.2633Z" fill="white"/>
<rect x="86" y="1" width="30" height="15" rx="4" fill="white"/>
<path d="M91.8937 3.75781V13H89.9957V3.75781H91.8937ZM100.269 11.5146V13H95.6159V11.5146H100.269ZM96.2316 3.75781V13H94.3273V3.75781H96.2316ZM104.035 3.75781V13H102.137V3.75781H104.035ZM112.671 11.5146V13H107.751V11.5146H112.671ZM108.373 3.75781V13H106.469V3.75781H108.373ZM112.03 7.52197V8.96924H107.751V7.52197H112.03ZM112.664 3.75781V5.24951H107.751V3.75781H112.664Z" fill="#1E1E1E"/>
</svg>
